<svg width="1335" height="755" xmlns="http://www.w3.org/2000/svg" xmlns:xlink="http://www.w3.org/1999/xlink" overflow="hidden"><defs><clipPath id="clip0"><rect x="1242" y="497" width="1335" height="755"/></clipPath></defs><g clip-path="url(#clip0)" transform="translate(-1242 -497)"><path d="M1630.26 603.281C1624.1 566.61 1655.8 532.839 1701.05 527.85 1719.39 525.829 1738.03 528.851 1754 536.432 1770.92 510.587 1810.45 500.764 1842.31 514.493 1847.88 516.893 1852.99 519.936 1857.48 523.526 1870.66 502.102 1902.76 493.398 1929.17 504.085 1936.48 507.043 1942.86 511.321 1947.82 516.59 1969.05 496.33 2006.59 493.827 2031.64 511 2042.17 518.218 2049.27 528.173 2051.72 539.158 2086.52 546.853 2107.05 576 2097.57 604.26 2096.78 606.636 2095.78 608.964 2094.58 611.227 2122.49 640.674 2115.66 682.879 2079.32 705.496 2068.01 712.536 2054.65 717.095 2040.53 718.731 2040.22 750.411 2008.25 775.886 1969.12 775.632 1956.05 775.547 1943.27 772.536 1932.18 766.93 1918.95 802.448 1872.79 822.522 1829.09 811.768 1810.77 807.262 1794.95 797.731 1784.31 784.802 1739.56 806.676 1681.48 794.909 1654.58 758.52 1654.24 758.061 1653.91 757.6 1653.58 757.136 1624.3 759.914 1597.77 742.978 1594.33 719.308 1592.5 706.692 1597.64 694.064 1608.38 684.789 1583.02 672.691 1574.51 646.136 1589.36 625.477 1597.92 613.558 1612.95 605.679 1629.81 604.262Z" stroke="#000000" stroke-width="4.58333" stroke-miterlimit="8" fill="#FFFFFF" fill-rule="evenodd"/><path d="M1639.97 689.374C1629.14 690.061 1618.32 688.033 1608.95 683.563M1667.34 752.972C1662.98 754.377 1658.42 755.312 1653.76 755.753M1784.28 783.531C1781.01 779.551 1778.26 775.298 1776.1 770.844M1935.5 751.893C1935.02 756.614 1933.92 761.281 1932.23 765.815M2000.42 665.873C2024.97 675.555 2040.46 695.796 2040.24 717.904M2094.33 610.456C2090.36 617.984 2084.29 624.662 2076.6 629.967M2051.79 538.065C2052.47 541.104 2052.78 544.19 2052.73 547.279M1938.57 527.317C1940.88 523.066 1943.94 519.108 1947.65 515.566M1853.62 532.917C1854.57 529.404 1856.04 525.999 1858.02 522.782M1753.94 536.358C1759.71 539.101 1765.06 542.403 1769.85 546.19M1633.04 613.628C1631.78 610.245 1630.85 606.786 1630.26 603.284" stroke="#000000" stroke-width="4.58333" stroke-miterlimit="8" fill="none" fill-rule="evenodd"/><text font-family="Calibri,Calibri_MSFontService,sans-serif" font-weight="400" font-size="64" transform="matrix(1 0 0 1 1702.87 670)">Webpage</text><rect x="1252.5" y="959.5" width="373" height="246" stroke="#000000" stroke-width="4.58333" stroke-miterlimit="8" fill="#FFFFFF"/><text font-family="Calibri,Calibri_MSFontService,sans-serif" font-weight="400" font-size="83" transform="matrix(1 0 0 1 1292.49 1109)">Crawling</text><rect x="2200.5" y="1003.5" width="374" height="246" stroke="#000000" stroke-width="4.58333" stroke-miterlimit="8" fill="#FFFFFF"/><text font-family="Calibri,Calibri_MSFontService,sans-serif" font-weight="400" font-size="83" transform="matrix(1 0 0 1 2283.67 1153)">Query</text><path d="M0-2.29167 147.877-2.29167 147.877 280.621 143.294 280.621 143.294 0 145.585 2.29167 0 2.29167ZM159.335 276.038 145.585 303.538 131.835 276.038Z" transform="matrix(-1 1.22465e-16 1.22465e-16 1 1584.09 655.5)"/><path d="M2111.5 653.208 2389.53 653.208 2389.53 980.225 2384.95 980.225 2384.95 655.5 2387.24 657.792 2111.5 657.792ZM2400.99 975.642 2387.24 1003.14 2373.49 975.642Z"/></g></svg>